<svg width="282" height="282" viewBox="0 0 282 282" fill="none" xmlns="http://www.w3.org/2000/svg">
<g filter="url(#filter0_d_40_4)">
<rect x="111" y="111" width="60" height="60" rx="30" fill="url(#paint0_linear_40_4)"/>
<rect x="111.75" y="111.75" width="58.5" height="58.5" rx="29.25" stroke="#2EECC5" stroke-opacity="0.5" stroke-width="1.5"/>
</g>
<g filter="url(#filter1_d_40_4)">
<rect x="106.75" y="106.75" width="68.5" height="68.5" rx="34.25" stroke="#153630" stroke-width="1.5" shape-rendering="crispEdges"/>
</g>
<path d="M132.939 139.939C132.354 140.525 132.354 141.475 132.939 142.061L142.485 151.607C143.071 152.192 144.021 152.192 144.607 151.607C145.192 151.021 145.192 150.071 144.607 149.485L136.121 141L144.607 132.515C145.192 131.929 145.192 130.979 144.607 130.393C144.021 129.808 143.071 129.808 142.485 130.393L132.939 139.939ZM135 139.5H134V142.5H135V139.5Z" fill="#2C8E7A"/>
<defs>
<filter id="filter0_d_40_4" x="5" y="5" width="272" height="272" filterUnits="userSpaceOnUse" color-interpolation-filters="sRGB">
<feFlood flood-opacity="0" result="BackgroundImageFix"/>
<feColorMatrix in="SourceAlpha" type="matrix" values="0 0 0 0 0 0 0 0 0 0 0 0 0 0 0 0 0 0 127 0" result="hardAlpha"/>
<feOffset/>
<feGaussianBlur stdDeviation="53"/>
<feComposite in2="hardAlpha" operator="out"/>
<feColorMatrix type="matrix" values="0 0 0 0 0.180392 0 0 0 0 0.92549 0 0 0 0 0.772549 0 0 0 0.1 0"/>
<feBlend mode="normal" in2="BackgroundImageFix" result="effect1_dropShadow_40_4"/>
<feBlend mode="normal" in="SourceGraphic" in2="effect1_dropShadow_40_4" result="shape"/>
</filter>
<filter id="filter1_d_40_4" x="0" y="0" width="282" height="282" filterUnits="userSpaceOnUse" color-interpolation-filters="sRGB">
<feFlood flood-opacity="0" result="BackgroundImageFix"/>
<feColorMatrix in="SourceAlpha" type="matrix" values="0 0 0 0 0 0 0 0 0 0 0 0 0 0 0 0 0 0 127 0" result="hardAlpha"/>
<feOffset/>
<feGaussianBlur stdDeviation="53"/>
<feComposite in2="hardAlpha" operator="out"/>
<feColorMatrix type="matrix" values="0 0 0 0 0.180392 0 0 0 0 0.92549 0 0 0 0 0.772549 0 0 0 0.1 0"/>
<feBlend mode="normal" in2="BackgroundImageFix" result="effect1_dropShadow_40_4"/>
<feBlend mode="normal" in="SourceGraphic" in2="effect1_dropShadow_40_4" result="shape"/>
</filter>
<linearGradient id="paint0_linear_40_4" x1="128" y1="119" x2="141" y2="171" gradientUnits="userSpaceOnUse">
<stop stop-color="#19201F"/>
<stop offset="1" stop-color="#323939"/>
</linearGradient>
</defs>
</svg>
